<svg width="48" height="48" viewBox="0 0 48 48" fill="none" xmlns="http://www.w3.org/2000/svg">
<path d="M25.9998 33H21.9998M29.9998 20C29.9998 18.4087 29.3676 16.8826 28.2424 15.7574C27.1172 14.6321 25.5911 14 23.9998 14C22.4085 14 20.8824 14.6321 19.7571 15.7574C18.6319 16.8826 17.9998 18.4087 17.9998 20C17.9998 23.0902 17.2202 25.206 16.3494 26.6054C15.6149 27.7859 15.2476 28.3761 15.2611 28.5408C15.276 28.7231 15.3146 28.7926 15.4616 28.9016C15.5942 29 16.1924 29 17.3886 29H30.6109C31.8072 29 32.4053 29 32.538 28.9016C32.6849 28.7926 32.7235 28.7231 32.7384 28.5408C32.7519 28.3761 32.3846 27.7859 31.6501 26.6054C30.7793 25.206 29.9998 23.0902 29.9998 20Z" stroke="#1D1D1D" stroke-width="2" stroke-linecap="round" stroke-linejoin="round"/>
</svg>
