<svg width="48" height="48" viewBox="0 0 48 48" fill="none" xmlns="http://www.w3.org/2000/svg">
<path fill-rule="evenodd" clip-rule="evenodd" d="M23.5 14C18.2533 14 14 18.2533 14 23.5C14 28.7467 18.2533 33 23.5 33C25.7631 33 27.8415 32.2086 29.4733 30.8875L32.2929 33.7071C32.6834 34.0976 33.3166 34.0976 33.7071 33.7071C34.0976 33.3166 34.0976 32.6834 33.7071 32.2929L30.8875 29.4733C32.2086 27.8415 33 25.7631 33 23.5C33 18.2533 28.7467 14 23.5 14ZM16 23.5C16 19.3579 19.3579 16 23.5 16C27.6421 16 31 19.3579 31 23.5C31 27.6421 27.6421 31 23.5 31C19.3579 31 16 27.6421 16 23.5Z" fill="white"/>
</svg>
