<svg width="24" height="24" viewBox="0 0 24 24" fill="none" xmlns="http://www.w3.org/2000/svg">
<path d="M3 10.5653C3 9.99094 3 9.70376 3.07403 9.4393C3.1396 9.20503 3.24737 8.98469 3.39203 8.7891C3.55534 8.5683 3.78202 8.39199 4.23539 8.03937L11.0177 2.76424C11.369 2.49099 11.5447 2.35436 11.7387 2.30184C11.9098 2.2555 12.0902 2.2555 12.2613 2.30184C12.4553 2.35436 12.631 2.49099 12.9823 2.76424L19.7646 8.03937C20.218 8.39199 20.4447 8.5683 20.608 8.7891C20.7526 8.98469 20.8604 9.20503 20.926 9.4393C21 9.70376 21 9.99094 21 10.5653V17.8002C21 18.9203 21 19.4804 20.782 19.9082C20.5903 20.2845 20.2843 20.5905 19.908 20.7822C19.4802 21.0002 18.9201 21.0002 17.8 21.0002H6.2C5.07989 21.0002 4.51984 21.0002 4.09202 20.7822C3.71569 20.5905 3.40973 20.2845 3.21799 19.9082C3 19.4804 3 18.9203 3 17.8002V10.5653Z" stroke="#A0A5A9" stroke-width="2" stroke-linecap="round" stroke-linejoin="round"/>
</svg>
