<svg width="64" height="64" viewBox="0 0 64 64" fill="none" xmlns="http://www.w3.org/2000/svg">
<rect width="64" height="64" rx="20" fill="#5D74F1"/>
<path d="M10 32C10 33.3132 10.2587 34.6136 10.7612 35.8268C11.2638 37.0401 12.0003 38.1425 12.9289 39.0711C13.8575 39.9997 14.9599 40.7362 16.1732 41.2388C17.3864 41.7413 18.6868 42 20 42C21.3132 42 22.6136 41.7413 23.8268 41.2388C25.0401 40.7362 26.1425 39.9997 27.0711 39.0711C27.9997 38.1425 28.7362 37.0401 29.2388 35.8268C29.7413 34.6136 30 33.3132 30 32L20 32L10 32Z" fill="white"/>
<path d="M34 32C34 33.3132 34.2587 34.6136 34.7612 35.8268C35.2638 37.0401 36.0003 38.1425 36.9289 39.0711C37.8575 39.9997 38.9599 40.7362 40.1732 41.2388C41.3864 41.7413 42.6868 42 44 42C45.3132 42 46.6136 41.7413 47.8268 41.2388C49.0401 40.7362 50.1425 39.9997 51.0711 39.0711C51.9997 38.1425 52.7362 37.0401 53.2388 35.8268C53.7413 34.6136 54 33.3132 54 32L44 32L34 32Z" fill="white"/>
</svg>
