<svg width="48" height="48" viewBox="0 0 48 48" fill="none" xmlns="http://www.w3.org/2000/svg">
<path d="M19 2.88675C22.094 1.10042 25.906 1.10042 29 2.88675L39.7846 9.11325C42.8786 10.8996 44.7846 14.2008 44.7846 17.7735V30.2265C44.7846 33.7992 42.8786 37.1004 39.7846 38.8868L29 45.1132C25.906 46.8996 22.094 46.8996 19 45.1132L8.21539 38.8868C5.12138 37.1004 3.21539 33.7992 3.21539 30.2265V17.7735C3.21539 14.2008 5.12138 10.8996 8.21539 9.11325L19 2.88675Z" fill="url(#paint0_linear_548_2291)"/>
<g style="mix-blend-mode:soft-light" filter="url(#filter0_d_548_2291)">
<path d="M34.0396 26.8598L18.3749 36.6387C18.209 36.7418 18.0141 36.7882 17.8196 36.7708C17.6251 36.7534 17.4415 36.6732 17.2966 36.5423C17.1517 36.4114 17.0532 36.237 17.0161 36.0452C16.9791 35.8535 17.0053 35.6549 17.091 35.4794L20.8192 27.9378L15.1869 23.9082C15.0659 23.8219 14.9681 23.7069 14.9024 23.5735C14.8367 23.4402 14.805 23.2927 14.8102 23.1441C14.8154 22.9955 14.8573 22.8506 14.9322 22.7221C15.0071 22.5937 15.1126 22.4859 15.2394 22.4082L30.9041 12.6293C31.07 12.5262 31.2649 12.4799 31.4594 12.4973C31.6539 12.5147 31.8374 12.5949 31.9824 12.7257C32.1273 12.8566 32.2258 13.0311 32.2628 13.2228C32.2999 13.4145 32.2736 13.6131 32.188 13.7886L28.4531 21.3378L34.0863 25.3641C34.2062 25.4505 34.303 25.5651 34.3681 25.6979C34.4333 25.8306 34.4647 25.9773 34.4596 26.125C34.4546 26.2728 34.4132 26.417 34.3392 26.5449C34.2652 26.6729 34.1608 26.7807 34.0352 26.8587L34.0396 26.8598Z" fill="white"/>
</g>
<g filter="url(#filter1_d_548_2291)">
<path d="M33.0391 25.8598L17.3744 35.6387C17.2085 35.7418 17.0136 35.7882 16.8191 35.7708C16.6246 35.7534 16.441 35.6732 16.2961 35.5423C16.1512 35.4114 16.0527 35.237 16.0157 35.0452C15.9786 34.8535 16.0049 34.6549 16.0905 34.4794L19.8188 26.9378L14.1864 22.9082C14.0654 22.8219 13.9676 22.7069 13.9019 22.5735C13.8362 22.4402 13.8045 22.2927 13.8097 22.1441C13.8149 21.9955 13.8568 21.8506 13.9317 21.7221C14.0066 21.5937 14.1122 21.4859 14.2389 21.4082L29.9036 11.6293C30.0695 11.5262 30.2644 11.4799 30.4589 11.4973C30.6534 11.5147 30.837 11.5949 30.9819 11.7257C31.1268 11.8566 31.2253 12.0311 31.2623 12.2228C31.2994 12.4145 31.2731 12.6131 31.1875 12.7886L27.4526 20.3378L33.0858 24.3641C33.2057 24.4505 33.3025 24.5651 33.3677 24.6979C33.4328 24.8306 33.4642 24.9773 33.4591 25.125C33.4541 25.2728 33.4127 25.417 33.3387 25.5449C33.2647 25.6729 33.1603 25.7807 33.0347 25.8587L33.0391 25.8598Z" fill="url(#paint1_linear_548_2291)" shape-rendering="crispEdges"/>
<path d="M31.9982 26.0123L32.0051 26.0141L17.1544 35.2848C17.1542 35.285 17.1541 35.2851 17.1539 35.2852C17.0649 35.3403 16.9605 35.3651 16.8562 35.3557C16.7518 35.3464 16.6532 35.3033 16.5754 35.2331C16.4975 35.1628 16.4447 35.0691 16.4247 34.9661C16.4049 34.8634 16.4189 34.7571 16.4646 34.663C16.4647 34.6628 16.4648 34.6625 16.465 34.6623L20.1923 27.1224L20.3492 26.805L20.0612 26.5989L14.4288 22.5693L14.4284 22.569C14.3634 22.5227 14.3109 22.4609 14.2756 22.3893C14.2403 22.3177 14.2233 22.2385 14.2261 22.1587C14.2289 22.0789 14.2514 22.001 14.2916 21.9321C14.3319 21.8631 14.3885 21.8052 14.4566 21.7635L14.4566 21.7635L14.4596 21.7616L30.1236 11.9832C30.1237 11.9831 30.1238 11.9831 30.1239 11.983C30.2129 11.9278 30.3174 11.903 30.4218 11.9123L30.4589 11.4976L30.4218 11.9123C30.5262 11.9216 30.6248 11.9647 30.7026 12.035L30.981 11.7267L30.7026 12.035C30.7805 12.1053 30.8333 12.199 30.8533 12.3019C30.8731 12.4046 30.8591 12.5109 30.8134 12.605C30.8133 12.6053 30.8132 12.6055 30.813 12.6058L27.0791 20.153L26.922 20.4707L27.2103 20.6768L32.8422 24.7021C32.8424 24.7023 32.8426 24.7024 32.8427 24.7025C32.9069 24.7489 32.9587 24.8103 32.9936 24.8814L33.3677 24.6979L32.9936 24.8814C33.0286 24.9527 33.0454 25.0315 33.0427 25.1108C33.04 25.1901 33.0178 25.2676 32.978 25.3363C32.9383 25.405 32.8822 25.4629 32.8148 25.5048L31.9982 26.0123Z" stroke="url(#paint2_linear_548_2291)" stroke-width="0.833333" shape-rendering="crispEdges"/>
</g>
<defs>
<filter id="filter0_d_548_2291" x="13.1429" y="11.6603" width="22.9837" height="27.6141" filterUnits="userSpaceOnUse" color-interpolation-filters="sRGB">
<feFlood flood-opacity="0" result="BackgroundImageFix"/>
<feColorMatrix in="SourceAlpha" type="matrix" values="0 0 0 0 0 0 0 0 0 0 0 0 0 0 0 0 0 0 127 0" result="hardAlpha"/>
<feOffset dy="0.833333"/>
<feGaussianBlur stdDeviation="0.833333"/>
<feComposite in2="hardAlpha" operator="out"/>
<feColorMatrix type="matrix" values="0 0 0 0 0 0 0 0 0 0 0 0 0 0 0 0 0 0 0.1 0"/>
<feBlend mode="multiply" in2="BackgroundImageFix" result="effect1_dropShadow_548_2291"/>
<feBlend mode="normal" in="SourceGraphic" in2="effect1_dropShadow_548_2291" result="shape"/>
</filter>
<filter id="filter1_d_548_2291" x="12.1424" y="10.6603" width="22.9837" height="27.6141" filterUnits="userSpaceOnUse" color-interpolation-filters="sRGB">
<feFlood flood-opacity="0" result="BackgroundImageFix"/>
<feColorMatrix in="SourceAlpha" type="matrix" values="0 0 0 0 0 0 0 0 0 0 0 0 0 0 0 0 0 0 127 0" result="hardAlpha"/>
<feOffset dy="0.833333"/>
<feGaussianBlur stdDeviation="0.833333"/>
<feComposite in2="hardAlpha" operator="out"/>
<feColorMatrix type="matrix" values="0 0 0 0 0 0 0 0 0 0 0 0 0 0 0 0 0 0 0.1 0"/>
<feBlend mode="multiply" in2="BackgroundImageFix" result="effect1_dropShadow_548_2291"/>
<feBlend mode="normal" in="SourceGraphic" in2="effect1_dropShadow_548_2291" result="shape"/>
</filter>
<linearGradient id="paint0_linear_548_2291" x1="24" y1="0" x2="24" y2="48" gradientUnits="userSpaceOnUse">
<stop stop-color="#00A3FF"/>
<stop offset="1" stop-color="#0084FF"/>
</linearGradient>
<linearGradient id="paint1_linear_548_2291" x1="30.5998" y1="11.3998" x2="16.1998" y2="35.3998" gradientUnits="userSpaceOnUse">
<stop stop-color="white" stop-opacity="0.9"/>
<stop offset="1" stop-color="#F9FAFC"/>
</linearGradient>
<linearGradient id="paint2_linear_548_2291" x1="31.9998" y1="11.4998" x2="15.9998" y2="35.9998" gradientUnits="userSpaceOnUse">
<stop stop-color="white" stop-opacity="0"/>
<stop offset="1" stop-color="white"/>
</linearGradient>
</defs>
</svg>
