<svg width="144" height="144" viewBox="0 0 144 144" fill="none" xmlns="http://www.w3.org/2000/svg">
<circle cx="69" cy="75" r="42" stroke="#8EC9DB" stroke-width="54"/>
<path d="M69 6C69 2.68629 71.6906 -0.0249508 74.9937 0.23986C85.543 1.0856 95.8178 4.15675 105.132 9.277C116.202 15.363 125.556 24.1466 132.325 34.813C139.094 45.4793 143.059 57.6827 143.852 70.2907C144.519 80.8981 142.923 91.5027 139.197 101.408C138.03 104.51 134.431 105.79 131.433 104.379L101.685 90.3806C98.6871 88.9697 97.4657 85.3974 98.2554 82.1791C98.9803 79.2252 99.2564 76.1671 99.064 73.1085C98.7454 68.0446 97.1528 63.1431 94.4341 58.8591C91.7153 54.575 87.9584 51.047 83.5121 48.6026C80.8265 47.1262 77.9419 46.074 74.9605 45.4721C71.7123 44.8165 69 42.1903 69 38.8766V6Z" fill="#5D74F1"/>
</svg>
