<svg width="48" height="48" viewBox="0 0 48 48" fill="none" xmlns="http://www.w3.org/2000/svg">
<path d="M24 20V28M20 24H28M19.8 33H28.2C29.8802 33 30.7202 33 31.362 32.673C31.9265 32.3854 32.3854 31.9265 32.673 31.362C33 30.7202 33 29.8802 33 28.2V19.8C33 18.1198 33 17.2798 32.673 16.638C32.3854 16.0735 31.9265 15.6146 31.362 15.327C30.7202 15 29.8802 15 28.2 15H19.8C18.1198 15 17.2798 15 16.638 15.327C16.0735 15.6146 15.6146 16.0735 15.327 16.638C15 17.2798 15 18.1198 15 19.8V28.2C15 29.8802 15 30.7202 15.327 31.362C15.6146 31.9265 16.0735 32.3854 16.638 32.673C17.2798 33 18.1198 33 19.8 33Z" stroke="#1D1D1D" stroke-width="2" stroke-linecap="round" stroke-linejoin="round"/>
</svg>
